<svg width="18" height="18" viewBox="0 0 18 18" fill="none" xmlns="http://www.w3.org/2000/svg">
<path d="M10.9272 0H4.96689C4.68874 0 4.4106 0.119204 4.25166 0.357614C4.09272 0.596025 4.01325 0.87417 4.09272 1.15232L4.64901 3.25827H6.51656L6.15894 1.82782H10.9272C13.8278 1.82782 16.1722 4.17219 16.1722 7.07285C16.1722 9.97351 13.8278 12.3179 10.9272 12.3179H8.86093H6.99338H4.92715C3.21854 12.3179 1.78808 10.9272 1.78808 9.17881C1.78808 7.43046 3.1788 6.03974 4.92715 6.03974H5.36424L6.75497 11.3245H8.62252L7.23179 6.03974H13.0728C13.5497 6.03974 13.9868 5.64239 13.9868 5.12583C13.9868 4.60927 13.5894 4.21192 13.0728 4.21192H6.75497H4.88742C2.18543 4.21192 0 6.43709 0 9.13907C0 11.8411 2.22516 14.0662 4.92715 14.0662H7.4702L8.34437 17.3245C8.46358 17.7219 8.82119 18 9.21854 18C9.29801 18 9.37748 18 9.45695 17.9603C9.93377 17.8411 10.2119 17.3642 10.0927 16.8477L9.33775 14.0265H10.9669C14.8609 14.0265 18 10.8874 18 6.99338C17.9603 3.13907 14.8212 0 10.9272 0Z" fill="black"/>
</svg>
